<svg width="10" height="10" viewBox="0 0 10 10" fill="none" xmlns="http://www.w3.org/2000/svg">
<g clip-path="url(#clip0_1_19)">
<path d="M9.64286 1.5625H7.80402L7.04509 0.454102C6.83259 0.172402 6.50446 0 6.12946 0H3.87054C3.49554 0 3.14732 0.172402 2.95536 0.454102L2.19598 1.5625H0.357143C0.15904 1.5625 0 1.70176 0 1.875V2.1875C0 2.36133 0.15904 2.5 0.357143 2.5H0.714286V8.75C0.714286 9.44043 1.35379 10 2.14286 10H7.85714C8.64621 10 9.28571 9.44043 9.28571 8.75V2.5H9.64286C9.84152 2.5 10 2.36133 10 2.1875V1.875C10 1.70176 9.84152 1.5625 9.64286 1.5625ZM3.83705 0.99375C3.85938 0.95957 3.90402 0.9375 3.95089 0.9375H6.04911C6.09654 0.9375 6.14118 0.959473 6.1635 0.993652L6.55357 1.5625H3.44643L3.83705 0.99375ZM7.85714 9.0625H2.14286C1.9456 9.0625 1.78571 8.9226 1.78571 8.75V2.5H8.21429V8.75C8.21429 8.92188 8.05357 9.0625 7.85714 9.0625ZM5 8.125C5.19741 8.125 5.35714 7.98523 5.35714 7.8125V3.75C5.35714 3.57727 5.19741 3.4375 5 3.4375C4.80259 3.4375 4.64286 3.57812 4.64286 3.75V7.8125C4.64286 7.98438 4.80357 8.125 5 8.125ZM3.21429 8.125C3.41071 8.125 3.57143 7.98438 3.57143 7.8125V3.75C3.57143 3.57727 3.4117 3.4375 3.21429 3.4375C3.01688 3.4375 2.85714 3.57812 2.85714 3.75V7.8125C2.85714 7.98438 3.01786 8.125 3.21429 8.125ZM6.78571 8.125C6.98313 8.125 7.14286 7.98523 7.14286 7.8125V3.75C7.14286 3.57727 6.98313 3.4375 6.78571 3.4375C6.5883 3.4375 6.42857 3.57812 6.42857 3.75V7.8125C6.42857 7.98438 6.58929 8.125 6.78571 8.125Z" fill="white"/>
</g>
<defs>
<clipPath id="clip0_1_19">
<rect width="10" height="10" fill="white"/>
</clipPath>
</defs>
</svg>
