<svg width="10" height="10" viewBox="0 0 10 10" fill="none" xmlns="http://www.w3.org/2000/svg">
<path d="M9.71615 1.80036L8.19966 0.283873C8.01661 0.100805 7.77323 0 7.51435 0C7.25549 0 7.01211 0.100805 6.82906 0.283868L0.480995 6.63191C0.420741 6.69216 0.381901 6.77052 0.370451 6.85496L0.00354065 9.55807C-0.0128139 9.67863 0.0280725 9.79989 0.114102 9.88591C0.187639 9.95944 0.286922 10 0.389512 10C0.406916 10 0.424432 9.99884 0.441931 9.99646L3.14502 9.62956C3.22947 9.61809 3.30783 9.57928 3.36808 9.519L9.71615 3.17098C9.8992 2.98793 10 2.74454 10 2.48568C10 2.22679 9.8992 1.98341 9.71615 1.80036ZM2.91009 8.87523L0.844357 9.15562L1.12475 7.0899L5.62317 2.59151L7.40848 4.37685L2.91009 8.87523ZM9.16525 2.62009L7.95937 3.82596L6.17404 2.04062L7.37991 0.834759C7.42838 0.786308 7.48494 0.779068 7.51435 0.779068C7.54375 0.779068 7.60032 0.786308 7.64879 0.834759L9.16527 2.35125C9.21372 2.39969 9.22095 2.45626 9.22095 2.48566C9.22095 2.51507 9.21371 2.57163 9.16525 2.62009Z" fill="white"/>
</svg>
